<?xml version="1.0" encoding="iso-8859-1"?>
<!-- Generator: Adobe Illustrator 19.0.0, SVG Export Plug-In . SVG Version: 6.00 Build 0)  -->
<svg version="1.1" id="Capa_1" xmlns="http://www.w3.org/2000/svg" xmlns:xlink="http://www.w3.org/1999/xlink" x="0px" y="0px"
	 viewBox="0 0 511.999 511.999" style="enable-background:new 0 0 511.999 511.999;" xml:space="preserve">
<path style="fill:#F9C5B5;" d="M368.388,184.51c14.315,0,25.921,11.604,25.921,25.921c0,14.315-11.604,25.921-25.921,25.921H136.513
	c-14.315,0-25.921-11.604-25.921-25.921c0-14.315,11.604-25.921,25.921-25.921H368.388z"/>
<path style="fill:#CD315B;" d="M361.813,366.992c0-35.685-15.307-57.654-16.949-58.438l-182.79-2.65
	c-1.641,0.783-17.718,25.403-17.718,61.088H361.813z"/>
<path style="fill:#F23466;" d="M160.697,365.989h-16.34c-22.422,0-40.598,18.176-40.598,40.598v97.89h296.093v-86.432
	c0-22.422-18.176-52.056-40.598-52.056h-11.166H160.697z"/>
<path style="opacity:0.1;enable-background:new    ;" d="M359.255,365.989h-11.166h-32.615c22.422,0,40.598,29.634,40.598,52.056
	v86.432h43.781v-86.432C399.852,395.623,381.676,365.989,359.255,365.989z"/>
<path style="fill:#A31F48;" d="M248.277,395.004c-116.857-38.28-81.625-83.308-81.625-83.308l172.769,2.619
	C339.42,314.316,375.987,355.856,248.277,395.004"/>
<path style="fill:#F9C5B5;" d="M212.273,381.193c9.89,4.641,21.582,9.274,35.434,13.811c14.986-4.593,27.71-9.221,38.496-13.809
	v-40.076h-73.931L212.273,381.193L212.273,381.193z"/>
<path style="opacity:0.2;enable-background:new    ;" d="M286.205,327.598h-73.931v31.637l21.883,7.422
	c9.782,3.317,20.384,3.317,30.166,0l21.883-7.422L286.205,327.598L286.205,327.598z"/>
<path style="fill:#F9C5B5;" d="M232.28,43.608c7.091-1.387,14.41-2.115,21.892-2.115l0,0c25.306,0,48.762,8.32,67.769,22.36
	l22.327-2.576l-4.493,18.881c17.954,20.233,28.891,46.815,28.891,75.828v82.112c0,62.972-51.522,114.494-114.494,114.494l0,0
	c-62.972,0-114.494-51.522-114.494-114.494v-82.112c0-42.652,23.637-80.052,58.459-99.747L232.28,43.608z"/>
<path style="opacity:0.1;enable-background:new    ;" d="M339.775,80.158l4.493-18.881l-21.264,2.454
	c16.699,19.908,26.789,45.523,26.789,73.384v82.112c0,62.972-51.522,114.494-114.494,114.494l0,0
	c-26.704,0-51.347-9.268-70.878-24.744c21.016,26.524,53.483,43.616,89.75,43.616l0,0c62.972,0,114.494-51.522,114.494-114.494
	v-82.112C368.666,126.974,357.73,100.392,339.775,80.158z"/>
<path style="fill:#7C4238;" d="M339.915,80.158l4.493-18.881l-22.327,2.576c-13.432-9.922-29.092-16.968-46.051-20.26l-63.112-36.07
	c0,0-5.702,21.219-7.589,21.219c-1.886,0-26.743-7.545-26.743-7.545l7.809,42.671l0.215-0.048
	c-28.324,20.895-46.79,54.475-46.79,92.167v6.166c10.411,1.999,28.465-12.116,28.871-20.246c0.471-9.431,1.359-24.814,16.905-26.813
	c19.119-2.459,24.837-25.055,24.837-25.055s17.608,35.364,35.527,32.064c17.918-3.3,19.874,2.829,30.243,15.56
	c10.37,12.731,28.912,4.629,42.433,0.471c19.333-5.943,29.593,26.877,49.893,9.863C366.721,122.108,356.208,98.519,339.915,80.158z"
	/>
<g>
	<circle style="fill:#FFC433;" cx="70.582" cy="77.966" r="31.138"/>
	<path style="fill:#FFC433;" d="M444.953,140.232l7.622,13.223c4.055,7.034,12.178,10.659,20.121,8.975l14.93-3.163l-10.22,11.335
		c-5.437,6.03-6.373,14.876-2.318,21.91l7.622,13.223l-13.938-6.218c-7.415-3.307-16.117-1.465-21.555,4.566l-10.22,11.335
		l1.606-15.177c0.855-8.074-3.588-15.781-11.004-19.088l-13.938-6.218l14.93-3.163c7.943-1.682,13.9-8.289,14.754-16.363
		L444.953,140.232z"/>
</g>
<g style="opacity:0.1;">
	<path d="M472.941,186.758l-4.168-1.859c-7.415-3.307-16.117-1.465-21.555,4.566l-8.528,9.458c-0.015,0.438-0.039,0.878-0.086,1.318
		l-1.606,15.177l10.22-11.335c5.437-6.03,14.139-7.874,21.555-4.566l13.938,6.218l-7.622-13.223
		C474.039,190.689,473.329,188.743,472.941,186.758z"/>
</g>
<circle style="fill:#FFC433;" cx="430.764" cy="77.966" r="27.83"/>
<path style="opacity:0.1;enable-background:new    ;" d="M445.514,54.364c2.678,4.276,4.233,9.33,4.233,14.748
	c0,15.369-12.459,27.83-27.83,27.83c-5.419,0-10.472-1.554-14.748-4.233c4.919,7.854,13.645,13.081,23.596,13.081
	c15.369,0,27.83-12.459,27.83-27.83C458.594,68.009,453.367,59.284,445.514,54.364z"/>
<circle style="fill:#FFC433;" cx="55.524" cy="197.04" r="21.639"/>
<path style="opacity:0.1;enable-background:new    ;" d="M65.733,179.213c1.629,3.041,2.558,6.512,2.558,10.203
	c0,11.951-9.688,21.639-21.639,21.639c-3.691,0-7.163-0.929-10.203-2.558c3.646,6.804,10.821,11.436,19.081,11.436
	c11.951,0,21.639-9.687,21.639-21.639C77.169,190.033,72.537,182.859,65.733,179.213z"/>
<path style="fill:#FFFFFF;" d="M289.827,275.581c3.957,0,7.037,3.548,6.365,7.448c-3.533,20.501-21.4,36.098-42.911,36.098
	s-39.378-15.596-42.911-36.098c-0.672-3.9,2.408-7.448,6.365-7.448H289.827z"/>
<path style="fill:#FFC433;" d="M43.614,62.392c8.598-14.893,27.642-19.995,42.535-11.397s19.995,27.642,11.397,42.535L43.614,62.392
	z"/>
<path d="M308.746,186.507c-11.026,0-19.997,8.97-19.997,19.997c0,4.156,3.369,7.524,7.524,7.524s7.524-3.368,7.524-7.524
	c0-2.73,2.22-4.95,4.95-4.95c2.73,0,4.95,2.22,4.95,4.95c0,4.156,3.369,7.524,7.524,7.524c4.155,0,7.524-3.368,7.524-7.524
	C328.742,195.477,319.771,186.507,308.746,186.507z"/>
<path d="M195.389,186.507c-11.026,0-19.997,8.97-19.997,19.997c0,4.156,3.369,7.524,7.524,7.524s7.524-3.368,7.524-7.524
	c0-2.73,2.22-4.95,4.95-4.95c2.73,0,4.95,2.22,4.95,4.95c0,4.156,3.369,7.524,7.524,7.524s7.524-3.368,7.524-7.524
	C215.385,195.477,206.415,186.507,195.389,186.507z"/>
<g>
	<rect x="140.752" y="174.68" style="opacity:0.3;fill:#FFFFFF;enable-background:new    ;" width="95.009" height="53.669"/>
	<rect x="275.245" y="174.68" style="opacity:0.3;fill:#FFFFFF;enable-background:new    ;" width="95.009" height="53.669"/>
</g>
<path d="M369.187,359.99c-0.794-17.069-4.826-30.286-8.275-38.669c-0.458-1.115-3.308-7.9-6.829-13.26
	c13.049-18.578,21.049-40.944,22.002-65.092c14.742-3.487,25.748-16.749,25.748-32.54c0-15.755-10.953-28.991-25.643-32.516v-2.138
	v-19.789c0-2.85-0.105-5.69-0.304-8.516c-0.008-0.11-0.013-0.221-0.025-0.33c-1.847-25.247-11.556-49.346-27.878-68.973l3.605-15.15
	c0.568-2.388-0.063-4.902-1.693-6.737c-1.629-1.836-4.053-2.764-6.488-2.479l-19.433,2.242
	c-13.76-9.663-29.084-16.255-45.245-19.576L216.651,0.991c-2.025-1.157-4.472-1.308-6.625-0.413
	c-2.153,0.897-3.769,2.74-4.374,4.993c-1.32,4.91-3.031,10.616-4.355,14.451c-5.106-1.417-13.184-3.795-20.527-6.024
	c-2.51-0.759-5.235-0.161-7.195,1.586c-1.957,1.746-2.863,4.387-2.392,6.967l6.982,38.155
	c-28.763,23.009-46.012,58.018-46.012,95.281v19.789v1.503c-16.389,2.144-29.086,16.188-29.086,33.151
	c0,17.007,12.765,31.081,29.216,33.167c1.035,23.23,8.592,44.792,20.887,62.892c-4.008,5.503-7.409,13.606-7.915,14.833
	c-3.384,8.225-7.336,21.097-8.234,37.702c-23.067,3.542-40.789,23.522-40.789,47.564v20.172c0,4.156,3.369,7.524,7.524,7.524
	c4.155,0,7.524-3.368,7.524-7.524v-20.172c0-18.237,14.838-33.074,33.074-33.074h16.34c4.155,0,7.524-3.368,7.524-7.524
	c0-4.156-3.369-7.524-7.524-7.524h-8.569c0.62-9.623,2.365-17.733,4.434-24.266c0.406,1.912,0.957,3.892,1.702,5.941
	c9.621,26.447,44.006,48.903,102.201,66.742c0.734,0.226,1.478,0.332,2.208,0.332c3.219,0,6.198-2.083,7.191-5.321
	c0.626-2.04,0.335-4.141-0.629-5.868c47.785-16.873,75.104-36.399,81.263-58.159c0.034-0.12,0.054-0.237,0.087-0.356
	c1.629,5.899,2.937,12.894,3.457,20.956h-5.954c-4.155,0-7.524,3.368-7.524,7.524c0,4.156,3.369,7.524,7.524,7.524h11.166
	c17.036,0,33.074,25.088,33.074,44.532v78.908h-49.93v-34.613c0-4.156-3.369-7.524-7.524-7.524c-4.155,0-7.524,3.368-7.524,7.524
	v34.613H170.533v-34.613c0-4.156-3.369-7.524-7.524-7.524s-7.524,3.368-7.524,7.524v34.613h-44.203v-41.657
	c0-4.156-3.369-7.524-7.524-7.524c-4.155,0-7.524,3.368-7.524,7.524v49.181c0,4.156,3.369,7.524,7.524,7.524h296.094
	c4.155,0,7.524-3.368,7.524-7.524v-86.432C407.376,394.508,391.046,366.714,369.187,359.99z M147.203,181.506h58.749h21.357v40.012
	h-80.106V181.506z M233.038,166.459h-27.086h-45.892c8.402-5.852,15.607-16.211,16.005-24.175
	c0.614-12.281,2.383-18.704,10.35-19.728c12.184-1.567,19.971-9.203,24.715-16.467c1.3,1.908,2.741,3.9,4.299,5.876
	c10.679,13.552,21.363,19.457,31.755,17.536c11.255-2.075,12.193-0.877,19.496,8.445c1.085,1.385,2.254,2.876,3.55,4.468
	c12.462,15.3,32.56,8.735,45.859,4.392c1.589-0.52,3.135-1.024,4.618-1.481c4.71-1.449,8.898,1.369,15.34,6.086
	c6.217,4.55,14.76,10.792,25.098,8.626v6.419h-45.417h-42.194h-40.495V166.459z M279.262,181.506h36.464h45.417v1
	c-0.177,0.639-0.278,1.309-0.278,2.004s0.102,1.365,0.278,2.004v35.004h-81.88L279.262,181.506L279.262,181.506z M386.785,210.43
	c0,7.353-4.346,13.693-10.595,16.636v-2.33v-30.942C382.439,196.737,386.785,203.077,386.785,210.43z M201.842,62.789
	c3.616-2.045,4.89-6.636,2.845-10.253c-2.046-3.616-6.635-4.888-10.253-2.845c-0.91,0.515-1.803,1.049-2.695,1.585l-3.54-19.348
	c14.76,4.337,16.151,4.337,17.131,4.337c6.707,0,8.794-6.663,11.682-15.884c0.166-0.527,0.328-1.054,0.487-1.574l27.188,15.539
	c-4.659,0.363-9.291,0.986-13.849,1.879c-4.078,0.798-6.737,4.75-5.939,8.829c0.798,4.077,4.756,6.734,8.828,5.939
	c6.696-1.31,13.576-1.974,20.447-1.974c6.857,0,13.618,0.66,20.228,1.933c0.124,0.028,0.25,0.046,0.374,0.067
	c15.339,3.011,29.838,9.389,42.697,18.887c1.533,1.134,3.438,1.642,5.333,1.422l11.66-1.345l-2.007,8.435
	c-0.568,2.387,0.063,4.9,1.692,6.735c14.806,16.684,23.927,37.381,26.332,59.227c-4.656,2.513-8.099,0.345-15.547-5.108
	c-7.344-5.376-16.485-12.067-28.649-8.328c-1.564,0.481-3.193,1.013-4.868,1.56c-13.807,4.51-24.006,7.18-29.52,0.409
	c-1.232-1.513-2.341-2.929-3.373-4.245c-8.85-11.296-14.796-17.512-34.067-13.963c-8.393,1.524-21.325-15.809-27.428-28.018
	c-1.398-2.807-4.396-4.442-7.511-4.115c-3.119,0.321-5.715,2.559-6.51,5.592c-0.046,0.177-4.795,17.705-18.51,19.468
	c-21.905,2.818-22.994,24.598-23.46,33.9c-0.087,1.759-3.128,7.481-8.386,11.699c-2.927,2.348-4.84,2.813-5.446,2.835v-0.078
	C147.203,117.561,168.139,81.851,201.842,62.789z M118.116,210.43c0-8.64,5.995-15.889,14.039-17.853v32.159v3.548
	C124.111,226.318,118.116,219.07,118.116,210.43z M147.203,236.564h81.988c7.259,0,13.164-5.906,13.164-13.164v-41.895h21.86V223.4
	c0,7.259,5.906,13.164,13.164,13.164h83.496c0.017,0.614,0.108,1.209,0.264,1.778c-0.132,58.872-48.065,106.727-106.967,106.727
	c-58.983,0-106.97-47.987-106.97-106.97v-1.534H147.203z M248.4,387.089c-10.733-3.774-20.014-7.579-28.035-11.36v-20.381
	c10.74,3.102,22.082,4.768,33.807,4.768c8.593,0,16.98-0.898,25.077-2.596v18.649C270.388,379.762,260.174,383.418,248.4,387.089z
	 M172.573,335.449c-1.179-3.094-1.695-5.913-1.834-8.404c10.077,9.458,21.754,17.226,34.58,22.853v17.95
	C184.699,355.764,175.957,344.335,172.573,335.449z M335.922,334.101c-2.309,7.681-11.112,20.724-41.626,35.431V353.33
	c15.882-5.546,30.277-14.286,42.412-25.45C336.801,329.723,336.611,331.808,335.922,334.101z"/>
<path d="M189.891,402.22c16.607,12.444,35.024,20.354,54.739,23.511c0.402,0.064,0.804,0.096,1.199,0.096
	c3.631,0,6.827-2.635,7.419-6.335c0.657-4.103-2.137-7.962-6.24-8.618c-26.041-4.17-42.64-16.608-48.094-20.695
	c-1.742-1.306-2.702-2.025-4.296-2.447c-4.018-1.068-8.136,1.328-9.2,5.346c-0.901,3.401,0.677,6.876,3.619,8.506
	C189.257,401.743,189.541,401.957,189.891,402.22z"/>
<path d="M32.246,73.019c-0.208,1.62-0.327,3.266-0.327,4.942c0,21.318,17.344,38.661,38.661,38.661
	c8.805,0,16.926-2.964,23.433-7.938c1.028,0.393,2.04,0.771,3.024,1.12c5.37,1.901,10.969,3.532,15.741,3.532
	c4.358,0,8.025-1.361,10.197-5.122c3.805-6.589-0.41-14.272-14.058-25.314c0.208-1.618,0.326-3.263,0.326-4.937
	c0-21.318-17.344-38.661-38.662-38.661c-8.805,0-16.927,2.964-23.434,7.94c-16.381-6.296-25.155-6.116-28.96,0.471
	c-4.55,7.88,3.305,16.18,11.591,23.259C30.566,71.644,31.396,72.329,32.246,73.019z M70.58,101.574
	c-10.816,0-19.95-7.312-22.735-17.251c4.42,2.911,9.145,5.827,14.059,8.665c4.918,2.84,9.809,5.474,14.543,7.848
	C74.57,101.317,72.604,101.574,70.58,101.574z M94.194,77.961c0,4.742-1.41,9.159-3.826,12.862
	c-6.032-2.746-13.071-6.323-20.94-10.866c-7.871-4.544-14.49-8.853-19.884-12.704c3.911-7.652,11.868-12.906,21.035-12.906
	C83.601,54.347,94.194,64.94,94.194,77.961z"/>
<path d="M493.215,164.305c2.183-2.421,2.558-5.972,0.931-8.796c-1.627-2.824-4.887-4.282-8.077-3.603l-14.931,3.162
	c-4.767,1.008-9.609-1.149-12.043-5.371l-7.623-13.224c-1.627-2.824-4.887-4.283-8.077-3.603c-3.189,0.675-5.581,3.326-5.923,6.569
	l-1.606,15.178c-0.513,4.848-4.062,8.785-8.832,9.795l-14.931,3.163c-3.188,0.675-5.58,3.326-5.923,6.569
	c-0.343,3.242,1.441,6.335,4.417,7.663l13.939,6.217c4.452,1.985,7.098,6.578,6.586,11.426l-1.606,15.177
	c-0.343,3.241,1.441,6.334,4.417,7.663c0.986,0.439,2.029,0.652,3.063,0.652c2.086,0,4.131-0.867,5.59-2.486l10.22-11.335
	c3.265-3.621,8.451-4.718,12.902-2.733l13.938,6.217c2.978,1.327,6.469,0.587,8.652-1.833c2.183-2.421,2.558-5.972,0.93-8.796
	l-7.621-13.223c-2.435-4.224-1.877-9.495,1.387-13.115L493.215,164.305z M466.209,190.856c-7.022-1.397-14.305,0.148-20.158,4.269
	c-0.845-7.108-4.563-13.558-10.289-17.852c6.499-3,11.484-8.529,13.797-15.303c4.862,5.254,11.661,8.286,18.819,8.393
	C464.883,176.612,464.099,184.014,466.209,190.856z"/>
<path d="M430.765,113.314c19.493,0,35.353-15.86,35.353-35.353s-15.86-35.352-35.353-35.352s-35.353,15.86-35.353,35.352
	C395.412,97.455,411.272,113.314,430.765,113.314z M430.765,57.656c11.196,0,20.306,9.109,20.306,20.305s-9.11,20.306-20.306,20.306
	s-20.306-9.11-20.306-20.306S419.569,57.656,430.765,57.656z"/>
<path d="M55.53,167.88c-16.081,0-29.163,13.082-29.163,29.163s13.082,29.163,29.163,29.163s29.163-13.082,29.163-29.163
	S71.609,167.88,55.53,167.88z M55.53,211.158c-7.783,0-14.115-6.333-14.115-14.115c0-7.782,6.332-14.115,14.115-14.115
	s14.115,6.333,14.115,14.115C69.645,204.825,63.312,211.158,55.53,211.158z"/>
<path d="M253.281,326.65c24.932,0,46.097-17.808,50.325-42.344c0.693-4.023-0.424-8.128-3.067-11.263
	c-2.669-3.168-6.574-4.986-10.714-4.986h-73.091c-4.14,0-8.045,1.818-10.715,4.987c-2.641,3.136-3.759,7.241-3.066,11.262
	C207.185,308.842,228.35,326.65,253.281,326.65z M232.277,304.877h42.009c-5.942,4.252-13.21,6.725-21.004,6.725
	C245.487,311.602,238.219,309.129,232.277,304.877z M288.518,283.105c-0.496,2.343-1.22,4.589-2.134,6.725h-66.206
	c-0.914-2.136-1.638-4.382-2.134-6.725H288.518z"/>
<path d="M237.576,260.709c13.24,0,24.011-9.2,24.011-20.508v-20.686c0-4.156-3.369-7.524-7.524-7.524
	c-4.155,0-7.524,3.368-7.524,7.524v20.686c0,2.578-3.833,5.461-8.963,5.461c-4.155,0-7.524,3.368-7.524,7.524
	C230.052,257.342,233.421,260.709,237.576,260.709z"/>
<g>
</g>
<g>
</g>
<g>
</g>
<g>
</g>
<g>
</g>
<g>
</g>
<g>
</g>
<g>
</g>
<g>
</g>
<g>
</g>
<g>
</g>
<g>
</g>
<g>
</g>
<g>
</g>
<g>
</g>
</svg>
