<svg id="Layer_1" height="512" viewBox="0 0 128 128" width="512" xmlns="http://www.w3.org/2000/svg" data-name="Layer 1"><path d="m33.296 6.5h88.333v115h-88.333z" fill="#e1ebf0"/><path d="m24.336 6.5h87.229v115h-87.229z" fill="#c7cfd4"/><path d="m13.167 6.5h88.333v115h-88.333z" fill="#e1ebf0"/><g fill="#694b4b"><path d="m6.5 25.127h13.333v6h-13.333z"/><path d="m6.5 49.042h13.333v6h-13.333z"/><path d="m6.5 72.958h13.333v6h-13.333z"/><path d="m6.5 96.873h13.333v6h-13.333z"/><path d="m77.463 96.31h-40.263a1.75 1.75 0 0 1 0-3.5h40.263a1.75 1.75 0 0 1 0 3.5z"/><path d="m77.463 106.938h-40.263a1.75 1.75 0 1 1 0-3.5h40.263a1.75 1.75 0 0 1 0 3.5z"/></g><path d="m77.464 70.6v10.364h-40.264v-10.364a10.114 10.114 0 0 1 10.116-10.11h20.035a10.114 10.114 0 0 1 10.113 10.11z" fill="#e97b83"/><path d="m63.4 50.377v11.711a6.068 6.068 0 0 1 -12.136 0v-11.711z" fill="#f0c087"/><path d="m43.487 33v11.809a11.883 11.883 0 0 0 11.883 11.883h3.93a11.883 11.883 0 0 0 11.88-11.883v-11.809z" fill="#f0c087"/><path d="m72.946 43.18c.569-14.552-3.073-20.367-15.613-20.367s-16.181 5.815-15.612 20.367c1.766-4.9 4.475-7.313 8.954-6.5s10.752-2.047 11.764-2.857c.936 4.043 9.116 8.802 10.507 9.357z" fill="#694b4b"/></svg>